<svg version="1.0" xmlns="http://www.w3.org/2000/svg" width="533.333" height="533.333" viewBox="0 0 400 400"><path d="M149.4 82.3c-6.5 3.9-33.7 23.6-40.7 29.4-8.6 7.3-33 32.8-39 40.8-12.2 16.4-21.4 35.3-26.4 54.3-2.1 8.1-2.6 12.6-3 27.7-.5 16.9-.4 18.6 2.1 28.6 2.8 11.4 7.8 22.8 12.9 29.4 4.5 5.9 14.8 15.7 18.8 17.9 14.4 8 23.2 10.6 38.4 11.3 35.8 1.6 64.7-15.2 74.6-43.4 2.9-8.1 4.4-27.5 2.9-37.7-3.2-22-16.8-41.1-36.5-50.9-10.8-5.4-18.2-7.1-31.5-7.1-9.9.1-12.6.4-19.5 2.8-4.4 1.5-8.4 2.8-9 2.9-.5.1-1.2.5-1.5.8-.3.3-2.5 1.8-4.9 3.3l-4.4 2.8.8-5.8c.4-3.2 1.6-8.8 2.7-12.4 2.2-7.3 10.3-23.5 13-26.2 1-1 1.7-2 1.6-2.2-.5-.7 10.5-13.7 12.9-15.3 1.3-.8 2.3-2.1 2.3-2.8 0-.7 1.9-2.9 4.3-4.8 2.3-2 6.9-6.1 10.2-9.1 3.3-3.1 6.6-5.4 7.3-5.1.7.2 1 .1.7-.5-.3-.5.7-1.7 2.2-2.7 1.5-.9 4.8-3.4 7.2-5.5 2.4-2.1 4.8-3.5 5.4-3.1.5.3.7.2.4-.4-.3-.5 1.9-2.4 4.9-4.2 2.9-1.9 5.4-3.9 5.4-4.7 0-.7-1.7-3.8-3.8-6.8l-3.9-5.5-6.9 4.2zm156.9 5.9c-20.2 13.7-33.9 24.6-47.5 38.1-6.2 6.1-11.7 11.2-12.3 11.2-.5 0-1 .6-1 1.3 0 .8-.9 2-1.9 2.8-1.1.8-1.7 1.4-1.3 1.4.4 0-1.2 2.4-3.7 5.4-2.4 2.9-5.8 7.5-7.6 10.2-1.9 2.7-3.8 5.2-4.4 5.6-.6.4-.7.8-.3.8.5 0-.1 1.3-1.3 3-2.9 4.1-10.4 20.2-13 28-5.9 17.7-8.2 38.5-6.1 55.5 3.6 28.2 15.3 47.5 36.8 60.5 3.4 2 5.9 4.1 5.5 4.5-.4.5-.2.5.4.2.7-.4 3.6.2 6.7 1.2 17 5.9 42.6 5.2 59.6-1.6 3.6-1.4 7.1-2.6 7.8-2.6.7 0 .9-.5.6-1-.4-.7.1-.8 1.3-.3 1 .4 1.5.4 1.1 0-1-1.1 3.1-3.6 4.6-2.8.6.4.9.4.6 0-.4-.4 2.3-3.7 5.9-7.4 12.3-12.6 18.3-22.7 21.8-36.2 2.3-9.2 1.6-28-1.5-37-7-20.4-23.3-36.7-43.1-43.1-13.7-4.4-22.4-4.7-40-1.4-4.8.9-14.8 5.9-20.8 10.4-2.8 2-3.5 2.2-4.2 1-1.5-2.3 1.3-17.1 4.6-24.8.9-2 2.2-5.2 3.1-7.1 3.4-7.9 15.2-23.9 24.8-33.5 14.2-14.3 21.9-20.9 38.3-32.4l10.2-7.2-2.2-4c-1.3-2.1-3.2-5.1-4.3-6.4l-2-2.5-15.2 10.2zM88.9 121.7c-1.3 1.6-1.2 1.7.4.4.9-.7 1.7-1.5 1.7-1.7 0-.8-.8-.3-2.1 1.3z"/></svg>