<?xml version="1.0" standalone="no"?>
<!DOCTYPE svg PUBLIC "-//W3C//DTD SVG 20010904//EN"
 "http://www.w3.org/TR/2001/REC-SVG-20010904/DTD/svg10.dtd">
<svg version="1.0" xmlns="http://www.w3.org/2000/svg"
 width="400.000000pt" height="400.000000pt" viewBox="0 0 400.000000 400.000000"
 preserveAspectRatio="xMidYMid meet">
<metadata>
Created by potrace 1.11, written by Peter Selinger 2001-2013
</metadata>
<g transform="translate(0.000000,400.000000) scale(0.100000,-0.100000)"
fill="#000000" stroke="none">
<path d="M1494 3177 c-65 -39 -337 -236 -407 -294 -86 -73 -330 -328 -390
-408 -122 -164 -214 -353 -264 -543 -21 -81 -26 -126 -30 -277 -5 -169 -4
-186 21 -286 28 -114 78 -228 129 -294 45 -59 148 -157 188 -179 144 -80 232
-106 384 -113 358 -16 647 152 746 434 29 81 44 275 29 377 -32 220 -168 411
-365 509 -108 54 -182 71 -315 71 -99 -1 -126 -4 -195 -28 -44 -15 -84 -28
-90 -29 -5 -1 -12 -5 -15 -8 -3 -3 -25 -18 -49 -33 l-44 -28 8 58 c4 32 16 88
27 124 22 73 103 235 130 262 10 10 17 20 16 22 -5 7 105 137 129 153 13 8 23
21 23 28 0 7 19 29 43 48 23 20 69 61 102 91 33 31 66 54 73 51 7 -2 10 -1 7
5 -3 5 7 17 22 27 15 9 48 34 72 55 24 21 48 35 54 31 5 -3 7 -2 4 4 -3 5 19
24 49 42 29 19 54 39 54 47 0 7 -17 38 -38 68 l-39 55 -69 -42z"/>
<path d="M3063 3118 c-202 -137 -339 -246 -475 -381 -62 -61 -117 -112 -123
-112 -5 0 -10 -6 -10 -13 0 -8 -9 -20 -19 -28 -11 -8 -17 -14 -13 -14 4 0 -12
-24 -37 -54 -24 -29 -58 -75 -76 -102 -19 -27 -38 -52 -44 -56 -6 -4 -7 -8 -3
-8 5 0 -1 -13 -13 -30 -29 -41 -104 -202 -130 -280 -59 -177 -82 -385 -61
-555 36 -282 153 -475 368 -605 34 -20 59 -41 55 -45 -4 -5 -2 -5 4 -2 7 4 36
-2 67 -12 170 -59 426 -52 596 16 36 14 71 26 78 26 7 0 9 5 6 10 -4 7 1 8 13
3 10 -4 15 -4 11 0 -10 11 31 36 46 28 6 -4 9 -4 6 0 -4 4 23 37 59 74 123
126 183 227 218 362 23 92 16 280 -15 370 -70 204 -233 367 -431 431 -137 44
-224 47 -400 14 -48 -9 -148 -59 -208 -104 -28 -20 -35 -22 -42 -10 -15 23 13
171 46 248 9 20 22 52 31 71 34 79 152 239 248 335 142 143 219 209 383 324
l102 72 -22 40 c-13 21 -32 51 -43 64 l-20 25 -152 -102z"/>
<path d="M889 2783 c-13 -16 -12 -17 4 -4 9 7 17 15 17 17 0 8 -8 3 -21 -13z"/>
</g>
</svg>
